<svg xmlns="http://www.w3.org/2000/svg" width="20" height="20" viewBox="0 0 20 20"><defs><style>.a{fill:none;}.b{fill:#98c1d9;}</style></defs><path class="a" d="M0,0H20V20H0Z"/><path class="a" d="M0,0H20V20H0Z"/><circle class="b" cx="1.5" cy="1.5" r="1.5" transform="translate(11.333 6.476)"/><circle class="b" cx="1.5" cy="1.5" r="1.5" transform="translate(5.667 6.476)"/><circle class="b" cx="1.5" cy="1.5" r="1.5" transform="translate(11.333 6.476)"/><circle class="b" cx="1.5" cy="1.5" r="1.5" transform="translate(5.667 6.476)"/><path class="b" d="M9.992,2A8,8,0,1,0,18,10,8,8,0,0,0,9.992,2ZM10,16.4A6.4,6.4,0,1,1,16.4,10,6.4,6.4,0,0,1,10,16.4Zm0-2a4.4,4.4,0,0,0,4.1-2.8H12.76a3.18,3.18,0,0,1-5.52,0H5.9A4.4,4.4,0,0,0,10,14.4Z"/></svg>